<svg xmlns="http://www.w3.org/2000/svg" viewBox="0 0 500 750" fill="currentColor" fill-rule="evenodd"><path d="M154.1,735.4C148.7,734.0 145.8,732.3 138.1,726.1L133.8,722.6L121.6,722.9C108.4,723.2 103.2,722.3 97.9,718.7C90.9,714.0 87.9,705.4 91.5,700.4C92.3,699.2 97.0,695.5 102.0,692.1C119.0,680.4 136.1,665.7 144.1,655.7L148.0,650.8L148.0,637.2C148.0,615.9 143.5,564.5 137.3,514.0C134.4,490.7 133.7,463.3 135.6,450.8L136.6,444.2L131.8,440.3C119.4,430.6 111.3,414.0 109.5,394.9C107.4,371.3 119.1,352.9 144.5,340.2C148.9,338.0 154.3,335.4 156.5,334.4L160.5,332.7L157.0,332.1C154.7,331.7 153.4,330.8 153.0,329.5C152.6,328.0 151.6,327.5 149.1,327.3C142.0,327.0 141.4,322.7 147.4,314.8C150.2,311.2 150.6,310.1 149.5,309.6C145.6,308.1 149.7,301.3 157.9,295.8C160.4,294.1 162.6,292.6 162.8,292.5C163.0,292.3 162.6,289.1 162.0,285.4C161.4,281.6 160.6,277.0 160.4,275.2L159.9,271.8L153.7,272.5C135.5,274.3 121.5,276.4 112.8,278.5C107.5,279.8 98.9,281.4 93.6,282.0C85.4,283.1 83.7,283.0 81.8,281.8C79.8,280.5 79.2,280.5 77.4,281.6C75.8,282.7 74.8,282.7 72.2,281.8C69.5,280.7 68.6,280.8 66.0,282.3C62.6,284.4 60.5,284.0 55.3,280.4C51.1,277.6 48.5,277.3 47.2,279.6C45.8,282.1 44.0,280.3 44.0,276.5C44.0,274.7 42.4,269.9 40.5,265.9C37.3,259.3 37.0,257.7 37.0,250.0C37.0,238.8 38.7,233.3 45.7,222.4C55.5,207.0 55.5,207.0 53.6,199.5C51.6,191.5 51.6,184.1 53.5,176.5C55.8,167.9 59.5,161.8 68.2,152.4C72.4,147.9 76.6,142.7 77.5,141.0C81.6,133.1 102.5,78.5 104.7,70.1C108.9,53.8 116.1,42.6 125.5,37.8C127.7,36.7 131.0,34.2 132.8,32.4C137.0,28.0 152.5,20.5 162.1,18.1C180.9,13.3 204.2,12.9 217.5,17.1C235.3,22.6 254.6,36.1 263.6,49.4C267.5,55.2 274.6,70.8 275.9,76.5C276.5,79.2 277.7,89.1 278.5,98.4C280.9,124.5 285.8,137.1 294.7,140.1C296.8,140.8 305.7,141.0 319.8,140.8L341.5,140.5L348.0,144.0C356.1,148.4 367.0,159.2 370.4,166.2C371.8,169.1 374.2,176.0 375.7,181.5L378.5,191.5L378.2,246.0L377.9,300.5L382.3,308.5C392.8,327.5 395.4,338.3 394.7,359.0C393.6,390.1 383.6,412.7 361.6,434.5C348.6,447.4 336.0,456.9 323.9,462.9L314.3,467.6L319.9,472.4C334.7,485.2 351.6,506.6 375.5,543.0C393.9,570.9 396.8,575.0 411.0,592.0C436.3,622.2 446.9,636.7 458.5,656.5C461.7,662.0 468.5,673.1 473.7,681.2C478.8,689.3 483.0,696.4 483.0,696.9C483.0,698.4 480.5,699.5 471.5,702.0C467.1,703.2 461.6,705.2 459.2,706.5C456.9,707.8 451.3,709.8 446.7,710.9C408.0,720.4 345.6,734.3 334.0,736.1C329.6,736.8 320.5,737.0 312.0,736.8C292.8,736.1 288.5,734.6 271.2,722.3C256.8,712.0 249.2,712.3 211.7,725.2C176.6,737.2 167.0,738.9 154.1,735.4ZM185.5,730.7C189.9,729.4 202.5,725.1 213.5,721.3C248.8,708.9 258.7,709.0 276.0,722.0C288.0,731.0 297.9,734.0 315.6,734.0C331.9,734.0 346.9,731.2 410.0,716.4C449.0,707.3 453.7,706.0 458.2,703.5C460.6,702.2 466.2,700.2 470.8,698.9C475.3,697.7 479.0,696.4 479.0,696.0C479.0,695.6 475.3,689.5 470.7,682.4C466.2,675.3 459.6,664.5 456.0,658.5C443.8,637.5 438.9,630.8 407.0,591.9C392.0,573.6 390.8,571.9 366.7,535.5C331.8,482.6 305.7,458.3 281.8,456.1C271.8,455.3 272.0,454.5 283.2,449.6C290.3,446.6 297.2,440.2 300.1,434.2C304.7,424.9 302.4,412.9 294.7,404.6L291.1,400.8L287.7,402.9C281.1,407.0 272.0,408.2 253.5,407.7C235.4,407.2 225.3,405.3 214.2,400.4C207.4,397.4 207.6,395.5 215.0,391.8C223.2,387.6 230.3,386.7 249.0,387.3C266.4,387.8 276.6,389.7 284.9,394.0C288.8,396.0 289.8,395.8 288.2,393.4C286.9,391.4 278.9,387.9 277.1,388.5C275.8,388.9 273.1,386.9 267.4,381.2C259.9,373.9 249.4,367.0 245.6,367.0C243.6,367.0 243.5,365.1 245.5,364.4C249.0,363.0 267.2,374.5 272.5,381.4C274.0,383.4 276.6,385.2 279.2,386.0C288.0,388.8 292.0,391.7 292.0,395.2C292.0,396.4 294.1,399.5 296.6,402.2C303.0,409.0 305.4,414.9 305.4,423.5C305.4,434.4 300.0,443.2 289.2,450.1L285.0,452.8L290.2,454.5C295.3,456.1 304.0,460.4 309.1,463.6C311.6,465.2 312.0,465.1 321.1,460.8C346.9,448.6 375.1,419.8 384.0,396.8C392.7,374.2 394.5,347.4 388.4,329.1C386.3,323.2 379.0,308.0 378.1,308.0C377.7,308.0 376.9,311.3 376.2,315.2C374.9,323.0 369.3,341.0 368.2,341.0C367.8,341.1 363.7,341.3 359.0,341.5C354.3,341.7 346.8,342.6 342.3,343.4C327.2,346.2 310.0,347.2 288.5,346.7C269.9,346.3 266.4,346.0 257.8,343.6C246.3,340.6 230.8,334.1 223.3,329.4C216.0,324.7 211.7,324.8 206.9,329.8C197.5,339.5 192.2,341.8 183.7,340.0C180.6,339.4 176.9,337.6 174.6,335.8L170.7,332.6L164.1,335.0C125.6,348.6 109.1,368.7 112.9,397.5C114.9,411.8 120.0,423.9 127.8,432.2C130.4,435.0 140.4,442.9 150.0,449.9C169.8,464.2 184.1,477.6 191.7,489.0C199.2,500.2 211.7,523.9 222.9,548.1C237.3,579.3 243.3,591.1 260.1,620.3C298.3,686.5 302.6,694.8 300.0,697.4C298.6,698.8 298.2,698.1 295.6,690.9C293.4,684.7 288.7,676.1 257.2,621.3C240.2,591.9 235.2,582.2 220.4,550.1C214.6,537.7 206.3,520.9 201.9,512.6C184.9,481.2 179.2,474.9 144.3,449.7L139.2,446.0L138.3,452.7C136.7,465.8 137.5,490.5 140.3,513.5C147.9,575.8 151.5,620.6 150.7,643.4C149.9,666.9 147.3,674.6 133.5,693.9C129.4,699.7 126.0,705.1 126.0,706.0C126.0,708.5 130.8,714.7 138.1,721.5C145.8,728.8 150.5,731.8 156.2,733.0C162.8,734.4 176.6,733.3 185.5,730.7ZM130.0,719.0C130.0,718.5 128.4,716.0 126.5,713.4C121.6,707.0 121.9,704.7 128.7,695.4C140.1,679.5 144.5,670.9 146.4,661.0L147.0,657.6L140.6,664.2C132.8,672.2 119.5,683.4 107.5,691.9C95.4,700.5 93.0,702.9 93.0,705.9C93.0,711.4 98.2,716.7 106.0,719.1C109.8,720.2 130.0,720.2 130.0,719.0ZM281.4,402.4C284.1,401.4 286.5,400.0 286.7,399.4C287.1,398.1 280.0,394.8 271.0,392.4C261.3,389.7 228.9,389.7 220.8,392.4C212.3,395.2 211.8,396.4 218.2,398.8C222.8,400.5 232.2,402.8 241.0,404.4C242.4,404.6 250.9,404.7 260.0,404.6C273.4,404.4 277.4,404.0 281.4,402.4ZM321.5,343.0C327.6,342.4 336.3,341.3 341.0,340.5C345.7,339.6 353.4,338.7 358.1,338.4L366.6,337.7L368.9,331.1C374.0,316.0 374.1,314.7 375.1,266.5C376.3,210.3 376.0,194.2 373.2,184.0C369.2,169.3 367.2,165.2 359.9,157.5C351.2,148.4 343.3,144.0 334.5,143.2C323.0,142.3 321.8,143.5 320.6,157.0C317.5,193.0 315.0,209.7 310.4,224.1C307.2,234.2 301.8,240.4 291.8,245.3C272.1,255.0 256.9,252.2 240.5,235.6C231.9,227.0 222.2,213.5 221.3,208.9C220.8,206.4 220.6,206.2 218.4,207.2C216.1,208.3 216.0,208.7 216.6,214.9C217.0,218.8 216.8,223.3 216.1,225.8C215.1,229.5 215.1,230.6 216.7,233.5C224.4,247.7 227.1,253.8 230.0,262.5C237.6,285.8 244.3,294.5 257.6,298.7C261.4,299.8 267.6,302.1 271.5,303.6C277.9,306.1 279.8,306.3 292.0,306.4C300.8,306.5 306.8,306.0 309.2,305.2C319.9,301.4 328.1,283.5 331.6,256.2C333.1,244.7 333.1,243.6 331.5,240.7C329.9,237.7 330.0,235.7 332.0,205.5C333.2,188.0 334.8,169.8 335.6,165.1C337.9,152.0 342.0,144.6 345.1,147.7C345.8,148.4 345.4,149.6 343.7,151.2C339.3,155.6 337.1,169.6 334.9,208.2C333.9,225.4 333.9,229.4 335.0,231.5C338.0,237.1 333.6,271.6 328.1,286.0C320.5,305.9 312.5,310.8 289.5,309.8C281.0,309.4 276.8,308.7 271.0,306.6C257.0,301.6 237.5,295.2 234.3,294.5C229.0,293.4 214.7,292.2 213.4,292.7C211.6,293.4 212.7,319.1 214.6,320.6C215.4,321.2 219.9,322.0 224.8,322.4C239.8,323.5 245.0,324.2 245.0,325.1C245.0,325.6 240.4,326.0 234.8,326.1C224.8,326.1 224.6,326.2 226.9,327.8C229.7,329.8 244.4,336.3 251.3,338.6C263.2,342.5 273.2,343.9 292.0,343.9C302.2,344.0 315.4,343.5 321.5,343.0ZM196.7,334.6C201.3,330.7 205.0,324.7 206.7,318.3C208.0,313.6 208.3,306.0 208.4,278.0C208.6,244.1 208.6,243.3 211.3,232.5C212.8,226.5 214.0,220.2 214.0,218.5C214.0,210.7 208.8,200.9 202.6,197.1C198.5,194.5 190.5,194.3 183.4,196.5C179.2,197.8 176.3,197.9 162.5,196.9L146.5,195.7L141.2,198.9C134.9,202.6 133.6,202.8 134.3,199.8C135.0,197.2 133.5,195.0 130.9,195.0C129.8,195.0 129.0,194.3 129.0,193.5C129.0,191.1 133.8,191.7 136.4,194.5C138.3,196.5 139.0,196.7 140.4,195.7C141.9,194.6 141.9,194.2 140.3,190.0C139.4,187.5 138.6,185.4 138.5,185.3C138.4,185.1 135.9,185.7 132.9,186.6C126.1,188.6 120.0,192.0 120.0,193.7C120.0,195.5 124.7,204.8 127.5,208.6C129.6,211.4 130.5,211.8 136.7,212.3C143.3,212.8 162.4,218.8 166.5,221.6C167.6,222.4 170.4,223.0 172.8,223.0C179.1,223.0 177.8,225.4 171.3,225.8C165.5,226.1 165.9,225.5 163.9,238.9C162.6,248.3 163.2,279.1 164.9,285.0C165.4,286.9 166.2,294.1 166.5,301.0C167.9,327.3 173.6,336.9 188.2,337.0C192.7,337.0 194.4,336.5 196.7,334.6ZM162.0,327.6C162.0,325.7 159.0,324.7 157.4,326.1C155.2,327.9 155.8,329.0 159.0,329.0C160.9,329.0 162.0,328.5 162.0,327.6ZM167.5,326.2C167.1,325.3 166.5,323.7 166.3,322.8C165.7,320.8 165.1,320.6 163.2,321.9C162.2,322.5 162.2,322.9 163.5,324.0C164.3,324.7 165.0,325.9 165.0,326.6C165.0,327.4 165.7,328.0 166.6,328.0C167.7,328.0 168.0,327.5 167.5,326.2ZM152.6,320.1C151.5,318.3 148.2,318.8 147.0,320.9C145.7,323.5 145.7,323.8 147.8,324.3C149.9,324.8 153.5,321.6 152.6,320.1ZM160.6,318.2C163.5,315.9 164.0,314.9 164.0,311.3C164.0,309.0 163.6,306.9 163.1,306.6C162.6,306.2 159.9,307.8 157.1,310.0C152.2,313.9 150.8,316.0 153.0,316.0C153.6,316.0 154.6,317.1 155.2,318.5C155.8,319.9 156.5,321.0 156.7,321.0C156.9,321.0 158.7,319.8 160.6,318.2ZM153.7,306.4C153.4,306.1 152.5,306.0 151.8,306.3C151.0,306.6 151.3,306.9 152.4,306.9C153.5,307.0 154.1,306.7 153.7,306.4ZM163.0,299.2L163.0,295.9L158.4,299.0C154.3,301.9 154.0,302.3 155.6,303.4C156.9,304.4 158.0,304.4 160.2,303.6C162.5,302.8 163.0,302.0 163.0,299.2ZM238.2,288.3C234.8,284.1 231.2,275.9 227.0,262.9C224.6,255.7 217.6,240.0 216.7,240.0C216.6,240.0 216.5,250.5 216.4,263.4L216.3,286.9L219.4,288.3C222.1,289.6 239.9,292.9 240.9,292.3C241.0,292.2 239.8,290.4 238.2,288.3ZM213.0,289.0C213.0,288.4 212.6,288.0 212.0,288.0C211.4,288.0 211.0,288.4 211.0,289.0C211.0,289.6 211.4,290.0 212.0,290.0C212.6,290.0 213.0,289.6 213.0,289.0ZM212.9,263.8C212.8,249.7 212.5,243.9 211.9,246.5C211.0,251.3 210.7,283.4 211.7,284.3C212.0,284.7 212.5,285.0 212.7,285.0C212.8,285.0 212.9,275.4 212.9,263.8ZM285.0,245.1C292.5,242.2 300.6,236.6 303.4,232.2C308.5,224.6 313.0,204.3 315.5,177.7C318.2,150.7 318.7,146.3 319.4,145.1C320.8,142.9 299.9,143.7 291.4,146.2C283.9,148.4 283.9,148.5 280.9,154.1C277.1,161.1 273.2,163.6 267.0,162.7C264.7,162.4 262.1,161.5 261.3,160.7C260.0,159.4 259.2,159.6 255.1,162.2C248.2,166.4 235.3,169.6 236.2,166.8C236.4,166.2 239.3,164.9 242.7,164.0C257.8,159.9 265.3,150.9 262.9,139.9C261.5,134.0 258.4,130.3 251.6,127.0C244.0,123.2 236.2,122.8 233.0,126.2C231.9,127.4 231.0,128.7 231.0,129.2C231.0,129.6 230.3,130.0 229.5,130.0C228.3,130.0 228.1,128.6 228.7,121.0C229.9,103.8 224.6,93.3 211.7,87.1C205.5,84.1 205.5,84.1 188.0,84.2C165.6,84.3 155.9,82.1 145.4,74.5C143.5,73.1 143.1,73.4 137.6,80.0C131.1,87.9 127.4,95.3 126.0,103.1C124.5,111.7 122.0,141.0 122.0,150.0C122.0,157.4 124.2,168.4 126.0,170.0C126.3,170.3 127.6,172.2 128.9,174.2C131.5,178.5 135.4,181.6 138.9,182.1C140.6,182.4 141.6,183.6 142.8,187.4C144.4,192.0 144.7,192.3 148.5,192.5C150.7,192.7 158.0,193.3 164.7,194.0C175.3,194.9 177.6,194.9 182.6,193.4C186.3,192.4 190.6,191.9 195.1,192.2C200.9,192.5 202.5,193.0 205.7,195.6C207.8,197.3 210.6,200.3 211.9,202.3L214.3,205.9L222.1,201.9C226.4,199.8 230.1,198.0 230.4,198.0C230.6,198.0 230.6,198.8 230.3,199.9C230.0,200.9 228.1,202.5 226.0,203.5L222.2,205.2L225.4,210.8L228.6,216.5L239.0,216.2C248.6,215.9 253.5,216.8 251.8,218.5C251.4,218.9 247.1,219.2 242.2,219.3C237.2,219.4 232.8,219.8 232.5,220.2C231.4,221.3 241.7,233.7 247.4,238.2C259.8,248.0 271.6,250.2 285.0,245.1ZM271.0,212.6C271.0,211.1 274.7,209.5 291.2,204.1C300.4,201.0 304.3,200.5 304.4,202.3C304.5,202.9 273.1,214.0 271.4,214.0C271.2,214.0 271.0,213.4 271.0,212.6ZM122.2,208.4C122.5,208.1 121.3,204.5 119.4,200.5C117.5,196.4 116.0,192.7 116.0,192.1C116.0,191.6 118.2,189.9 121.0,188.3C127.3,184.8 127.5,183.4 121.2,185.9C107.6,191.2 108.0,190.9 108.7,194.3C109.0,196.1 110.7,200.1 112.4,203.2C115.1,208.3 115.9,209.0 118.6,209.0C120.3,209.0 121.9,208.7 122.2,208.4ZM163.5,188.0C163.2,187.4 163.5,186.7 164.3,186.4C166.8,185.5 173.3,186.4 173.8,187.8C174.3,189.3 164.4,189.5 163.5,188.0ZM119.0,183.6C127.8,180.2 127.7,180.3 126.3,178.9C125.5,178.1 123.1,178.4 117.6,180.0C110.8,182.0 110.0,182.6 110.0,184.7C110.0,186.1 110.3,187.0 110.8,186.8C111.2,186.7 114.9,185.2 119.0,183.6ZM132.0,183.6C132.0,183.3 131.6,182.8 131.0,182.5C130.4,182.2 130.0,182.4 130.0,182.9C130.0,183.5 130.4,184.0 131.0,184.0C131.6,184.0 132.0,183.8 132.0,183.6ZM188.5,150.8C184.0,148.2 184.5,145.2 189.0,147.5C190.6,148.3 194.0,149.0 196.5,149.0C199.8,149.0 201.0,149.4 200.8,150.2C200.2,151.9 191.1,152.3 188.5,150.8ZM140.0,147.7C138.6,147.0 137.4,145.7 137.2,144.7C136.9,143.2 137.1,143.2 140.5,144.6C143.8,145.9 144.5,145.9 147.2,144.5C151.0,142.6 152.0,142.6 152.0,144.4C152.0,145.8 146.3,149.0 143.8,149.0C143.1,149.0 141.4,148.4 140.0,147.7ZM194.4,129.0C189.5,126.5 185.5,122.6 186.5,121.0C186.9,120.3 188.5,121.0 190.9,122.9C195.8,126.8 199.1,128.0 204.6,128.0C211.0,128.0 209.9,130.4 203.4,130.8C200.0,131.0 197.2,130.4 194.4,129.0ZM134.8,126.2C133.8,126.0 133.0,125.5 133.0,125.0C133.0,123.8 135.8,123.0 140.4,123.0C143.1,123.0 146.5,122.0 149.5,120.5C154.4,117.8 155.7,117.8 154.7,120.4C153.4,123.7 140.7,127.4 134.8,126.2Z"/></svg>